# xmcd
#
# Track frame offsets:
#	150
#	13925
#	24695
#	41370
#	54980
#	69180
#	88004
#	102376
#	119144
#	137075
#	153141
#	172012
#	183759
#	196530
#	207887
#	220533
#	236880
#	251725
#	261813
#	278316
#
# Disc length: 3962
#
# Revision: 2
# Processed by: cddbd v1.5.1PL0 Copyright (c) Steve Scherf et al.
# Submitted via: audiograbber 1.82.02
# Normalized: r1:DSETVAR1
#
DISCID=100f7814
DTITLE=Various Artist - CMT Classic Country Disc 2
DYEAR=1900
DGENRE=Country
TTITLE0=Highwaymen - The Highwaymen
TTITLE1=Charlie Rich - There Won't Be Anymore
TTITLE2=James Blundell - Kimberley Moon
TTITLE3=Conway Twitty - You've Never Been This Far Before
TTITLE4=Eddie Rabbitt - I Love A Rainy Night
TTITLE5=Slim Dusty - Star Trucker
TTITLE6=Bobby Bare - Marie Laveau
TTITLE7=Patsy Cline - Faded Love
TTITLE8=Billy Swan - I Can Help
TTITLE9=Gordon Lightfoot - Sundown
TTITLE10=Earl Thomas Conley - Somewhere Between Right And Wrong
TTITLE11=Tom T. Hall - Pamela Brown
TTITLE12=Don Williams - You're My Best Friend
TTITLE13=Crystal Gayle - Dont It Make Your Brown Eyes Blue
TTITLE14=Charley Pride - Mountain of Love
TTITLE15=Alabama - When We Make Love
TTITLE16=Doug Ashdown - Winter in America
TTITLE17=Jimmy Little - Royal Telephone
TTITLE18=Cal Smith - Country Bumpkin
TTITLE19=John Williamson - A Bushman Can't Survive
EXTD=
EXTT0=
EXTT1=
EXTT2=
EXTT3=
EXTT4=
EXTT5=
EXTT6=
EXTT7=
EXTT8=
EXTT9=
EXTT10=
EXTT11=
EXTT12=
EXTT13=
EXTT14=
EXTT15=
EXTT16=
EXTT17=
EXTT18=
EXTT19=
PLAYORDER=
